<?xml version="1.0" encoding="utf-8"?>
<!-- Generator: Adobe Illustrator 19.2.1, SVG Export Plug-In . SVG Version: 6.00 Build 0)  -->
<svg version="1.0" id="Layer_1" xmlns="http://www.w3.org/2000/svg" xmlns:xlink="http://www.w3.org/1999/xlink" x="0px" y="0px"
	 width="119px" height="29px" viewBox="0 0 119 29" style="enable-background:new 0 0 119 29;" xml:space="preserve">
<style type="text/css">
	.st0{fill:#FFFFFF;}
</style>
<g>
	<polygon class="st0" points="0,22 0.7,22 0.7,12.8 10,12.8 10,12.1 0.7,12.1 0.7,4.1 11.3,4.1 11.3,3.4 0,3.4 	"/>
	<path class="st0" d="M23.1,12.2c0-1.4-0.5-2.4-1.3-3.2s-2-1.1-3.5-1.1c-1.4,0-2.6,0.4-3.6,1.2s-1.5,1.7-1.5,2.9l0.7,0
		c0-1,0.4-1.8,1.2-2.4c0.8-0.6,1.9-1,3.1-1c1.3,0,2.3,0.3,3.1,1c0.7,0.6,1.1,1.5,1.1,2.7v2h-3.3c-1.9,0-3.4,0.4-4.5,1.2
		s-1.7,1.8-1.7,3.1c0,1.1,0.4,2,1.1,2.7s1.8,1,3,1c1.2,0,2.2-0.2,3.1-0.7c0.9-0.5,1.7-1.2,2.2-2.1c0,1.1,0.1,1.9,0.3,2.5h0.8v-0.1
		c-0.2-0.5-0.4-1.6-0.4-3.1V12.2z M22.4,18.3c-0.5,1.1-1.1,1.9-2.1,2.4c-0.9,0.6-2,0.9-3.3,0.9c-1,0-1.8-0.3-2.5-0.9
		c-0.7-0.6-1-1.3-1-2.2c0-1,0.4-1.8,1.3-2.4c1-0.8,2.5-1.2,4.4-1.2h3.1V18.3z"/>
	<path class="st0" d="M29.8,8.7c-0.7,0.6-1.3,1.3-1.7,2.3V8.2h-0.7V22h0.7v-9.1c0.2-1.4,0.8-2.4,1.5-3.2c0.8-0.8,1.7-1.1,2.9-1.1
		l0.9,0.1L33.5,8c-0.2-0.1-0.6-0.1-1-0.1C31.4,7.9,30.5,8.2,29.8,8.7z"/>
	<path class="st0" d="M75.4,12.3c0-1.4-0.5-2.5-1.3-3.2S72,7.9,70.5,7.9c-1.5,0-2.7,0.4-3.7,1.2c-1,0.8-1.5,1.8-1.5,2.9l1.5,0
		c0-0.8,0.3-1.4,1-2c0.7-0.5,1.5-0.8,2.6-0.8c1.1,0,2,0.3,2.6,0.9c0.6,0.6,0.9,1.3,0.9,2.3V14h-2.7c-2,0-3.5,0.4-4.6,1.2
		C65.5,15.9,65,17,65,18.3c0,1.1,0.4,2.1,1.2,2.8s1.9,1.1,3.2,1.1c0.9,0,1.8-0.2,2.6-0.6c0.8-0.4,1.5-0.9,2-1.6
		c0,0.9,0.1,1.5,0.3,1.9h1.6v-0.2c-0.3-0.7-0.4-1.7-0.4-3V12.3z M73.9,18.2c-0.4,0.8-0.9,1.5-1.7,2c-0.8,0.5-1.7,0.7-2.7,0.7
		c-0.9,0-1.6-0.3-2.2-0.8s-0.8-1.2-0.8-1.9c0-0.9,0.4-1.7,1.3-2.2c0.8-0.5,2-0.8,3.5-0.8h2.7V18.2z"/>
	<path class="st0" d="M80.9,10.4l0-2.2h-1.5V22h1.5v-9.5c0.3-1,0.7-1.8,1.4-2.3c0.6-0.5,1.4-0.8,2.4-0.8c0.4,0,0.7,0,1,0.1l0-1.4
		c-0.2-0.1-0.6-0.2-1-0.2C83,7.9,81.7,8.7,80.9,10.4z"/>
	<polygon class="st0" points="98,8.2 96.2,8.2 91,13.4 89.6,14.9 89.6,2.3 88,2.3 88,22 89.6,22 89.6,16.7 91.3,15 96.8,22 98.5,22 
		92.3,14 	"/>
	<path class="st0" d="M105.3,7.9c-1.1,0-2,0.3-2.9,0.9s-1.6,1.5-2.1,2.5c-0.5,1.1-0.8,2.3-0.8,3.6v0.6c0,1.3,0.3,2.5,0.8,3.5
		s1.2,1.8,2.2,2.4c0.9,0.6,2,0.9,3.1,0.9c2.1,0,3.7-0.8,4.8-2.4l-0.9-0.7c-0.5,0.7-1.1,1.1-1.7,1.4s-1.3,0.4-2.1,0.4
		c-1.3,0-2.4-0.5-3.3-1.6c-0.9-1-1.3-2.4-1.3-3.9v-0.3h9.7v-0.9c0-2-0.5-3.6-1.4-4.7C108.3,8.5,107,7.9,105.3,7.9z M109.2,13.9h-8.1
		c0.2-1.4,0.6-2.6,1.4-3.4c0.8-0.8,1.7-1.3,2.9-1.3c1.1,0,2.1,0.4,2.8,1.3c0.7,0.8,1.1,1.9,1.1,3.3V13.9z"/>
	<path class="st0" d="M118.9,20.8c-0.6,0.1-1,0.1-1.2,0.1c-0.6,0-1.1-0.2-1.4-0.6c-0.3-0.4-0.4-0.9-0.4-1.7V9.4h2.8V8.2H116V4.6
		h-1.5v3.6H112v1.3h2.5v9.3c0,1.2,0.2,2.1,0.7,2.7c0.5,0.6,1.2,0.9,2.2,0.9c0.7,0,1.2-0.1,1.6-0.2L118.9,20.8z"/>
	<path class="st0" d="M48.3,0c-7.8,0-14.2,6.5-14.2,14.5c0,8,6.3,14.5,14.2,14.5s14.2-6.5,14.2-14.5C62.4,6.5,56.1,0,48.3,0z
		 M57.8,21.6h-1.5v-9.1c0-1.2-0.3-2.2-0.8-2.8C55,9.1,54.1,8.8,53,8.8c-1.1,0-2,0.4-2.7,1.1c-0.7,0.7-1.2,1.5-1.2,2.5v9.2h-1.5v-9.3
		c0-1.2-0.3-2.1-0.8-2.7s-1.4-0.9-2.5-0.9c-0.9,0-1.8,0.3-2.4,0.8c-0.7,0.6-1.2,1.4-1.5,2.5v9.5h-1.5V7.7h1.4l0.1,2.3
		c0.5-0.8,1.1-1.5,1.9-1.9c0.8-0.4,1.6-0.6,2.5-0.6c2.1,0,3.5,0.9,4.1,2.7c0.5-0.9,1.1-1.5,1.9-2c0.8-0.5,1.7-0.7,2.7-0.7
		c2.9,0,4.4,1.6,4.4,4.9V21.6z"/>
</g>
</svg>
